# xmcd
#
# Track frame offsets:
#	150
#	27395
#	54712
#	73136
#	92647
#	107143
#	127443
#	149414
#	170871
#	193406
#	209392
#	230066
#	256223
#	270039
#
# Disc length: 3782 seconds
#
# Revision: 0
# Processed by: cddbd v1.5.1PL2 Copyright (c) Steve Scherf et al.
# Submitted via: EasyCDDAExtractor 8.2.3.1
#
DISCID=e20ec40e
DTITLE=Paul Barrere and Fred Tackett - Theatricum Botanicum - Topanga, CA 05-12-
DTITLE=02 disc 1
DYEAR=2002
DGENRE=Blues
TTITLE0=Eula
TTITLE1=Ain't Had Enough Fun
TTITLE2=Old Folks Boogie
TTITLE3=Rad Gumbo
TTITLE4=Trouble
TTITLE5=Two Trains ->
TTITLE6=Rocket In My Pocket (static)
TTITLE7=Gold Tooth Woman
TTITLE8=Hate To Lose Your Lovin'
TTITLE9=At Last
TTITLE10=Fool Yourself
TTITLE11=Everything I do Gone Be Funky
TTITLE12=Lonesome Whistle
TTITLE13=Six Feet Of Snow
EXTD=
EXTT0=
EXTT1=
EXTT2=
EXTT3=
EXTT4=
EXTT5=
EXTT6=
EXTT7=
EXTT8=
EXTT9=
EXTT10=
EXTT11=
EXTT12=
EXTT13=
PLAYORDER=
